<?xml version="1.0" encoding="utf-8"?>
<!-- Generator: Adobe Illustrator 21.0.2, SVG Export Plug-In . SVG Version: 6.00 Build 0)  -->
<svg version="1.1" id="Layer_1" xmlns="http://www.w3.org/2000/svg" xmlns:xlink="http://www.w3.org/1999/xlink" x="0px" y="0px"
	 viewBox="0 0 612 612" style="enable-background:new 0 0 612 612;" xml:space="preserve">
<style type="text/css">
	.st0{fill:#FFFFFF;}
</style>
<g>
	<polygon class="st0" points="306,432.4 261.1,376.3 185.5,284.2 306,432.4 	"/>
	<polygon class="st0" points="185.5,284.2 185.5,346.5 290.2,432.6 306,432.6 306,432.6 	"/>
	<polygon class="st0" points="306,432.5 306,432.4 306,432.4 	"/>
	<polygon class="st0" points="306,432.5 306,432.5 306,432.4 306,432.4 	"/>
	<polygon class="st0" points="306,432.5 306,432.5 306,432.6 306,432.6 306,432.6 306,432.7 321.8,432.7 426.5,346.5 426.5,284.2 
		306,432.5 	"/>
	<path class="st0" d="M510,0H102C45.9,0,0,45.9,0,102v408c0,56.1,45.9,102,102,102h408c56.1,0,102-45.9,102-102V102
		C612,45.9,566.1,0,510,0z M484.3,362.2L336.2,486.8H306h-30.2L127.7,362.2v-237L306,343.3l178.4-218.1V362.2z"/>
	<polygon class="st0" points="306,432.4 426.5,284.2 350.8,376.2 306,432.4 	"/>
</g>
</svg>
