<?xml version="1.0" encoding="utf-8"?>
<!-- Generator: Adobe Illustrator 21.0.2, SVG Export Plug-In . SVG Version: 6.00 Build 0)  -->
<svg version="1.1" id="Layer_1" xmlns="http://www.w3.org/2000/svg" xmlns:xlink="http://www.w3.org/1999/xlink" x="0px" y="0px"
	 viewBox="0 0 612 612" style="enable-background:new 0 0 612 612;" xml:space="preserve">
<style type="text/css">
	.st0{fill:#FFFFFF;}
</style>
<g id="outline" inkscape:version="0.48.1 r9760" sodipodi:docname="twitter_bootstrap_logo.svg" xmlns:cc="http://creativecommons.org/ns#" xmlns:dc="http://purl.org/dc/elements/1.1/" xmlns:inkscape="http://www.inkscape.org/namespaces/inkscape" xmlns:rdf="http://www.w3.org/1999/02/22-rdf-syntax-ns#" xmlns:sodipodi="http://sodipodi.sourceforge.net/DTD/sodipodi-0.dtd" xmlns:svg="http://www.w3.org/2000/svg">
	<g id="bg_1_">
		<path class="st0" d="M510,6c25.5,0,49.6,10,67.8,28.2S606,76.5,606,102v408c0,25.5-10,49.6-28.2,67.8S535.5,606,510,606H102
			c-25.5,0-49.6-10-67.8-28.2S6,535.5,6,510V102c0-25.5,10-49.6,28.2-67.8S76.5,6,102,6H510 M510,0H102C45.9,0,0,45.9,0,102v408
			c0,56.1,45.9,102,102,102h408c56.1,0,102-45.9,102-102V102C612,45.9,566.1,0,510,0L510,0z"/>
	</g>
	<path class="st0" d="M306,343.3L306,343.3L127.7,125.2v237l148.1,124.5H306l0,0h30.2l148.2-124.5l0,0v-237L306,343.3z M426.6,284.2
		L306,432.4l44.9-56.2L426.6,284.2z M426.6,284.2L426.6,284.2L426.6,284.2L426.6,284.2L426.6,284.2z M185.5,346.5v-62.3l75.7,92.1
		l44.9,56.2l0,0L185.5,284.2l120.6,148.4l0,0h-15.8L185.5,346.5z M306,432.6l120.6-148.4v62.3l-104.8,86.1H306z"/>
</g>
</svg>
