<?xml version="1.0" encoding="utf-8"?>
<!-- Generator: Adobe Illustrator 21.0.2, SVG Export Plug-In . SVG Version: 6.00 Build 0)  -->
<svg version="1.1" id="Layer_1" xmlns="http://www.w3.org/2000/svg" xmlns:xlink="http://www.w3.org/1999/xlink" x="0px" y="0px"
	 viewBox="0 0 612 612" style="enable-background:new 0 0 612 612;" xml:space="preserve">
<style type="text/css">
	.st0{fill:#D60050;}
	.st1{fill:#FFFFFF;}
</style>
<g id="solid" inkscape:version="0.48.1 r9760" sodipodi:docname="twitter_bootstrap_logo.svg" xmlns:cc="http://creativecommons.org/ns#" xmlns:dc="http://purl.org/dc/elements/1.1/" xmlns:inkscape="http://www.inkscape.org/namespaces/inkscape" xmlns:rdf="http://www.w3.org/1999/02/22-rdf-syntax-ns#" xmlns:sodipodi="http://sodipodi.sourceforge.net/DTD/sodipodi-0.dtd" xmlns:svg="http://www.w3.org/2000/svg">
	<path id="bg" class="st0" d="M612,510c0,56.1-45.9,102-102,102H102C45.9,612,0,566.1,0,510V102C0,45.9,45.9,0,102,0h408
		c56.1,0,102,45.9,102,102V510z"/>
</g>
<path class="st1" d="M304.6,343.3L304.6,343.3L126.3,125.2v237l148.1,124.5h30.2l0,0h30.2L483,362.2l0,0v-237L304.6,343.3z
	 M425.2,284.2L304.6,432.4l44.9-56.2L425.2,284.2z M425.2,284.2L425.2,284.2L425.2,284.2L425.2,284.2L425.2,284.2z M184.1,346.5
	v-62.3l75.7,92.1l44.9,56.2l0,0L184.1,284.2l120.6,148.4l0,0h-15.8L184.1,346.5z M304.6,432.6l120.6-148.4v62.3l-104.8,86.1H304.6z"
	/>
</svg>
